# xmcd
#
# Track frame offsets: 
#        150
#        26451
#        55048
#        82578
#        105825
#        173194
#        184613
#        205907
#        225791
#        258023
#        273529
#
# Disc length: 3764 seconds
#
# Revision: 0
# Processed by: cddbd v1.5.2PL0 Copyright (c) Steve Scherf et al.
# Submitted via: ExactAudioCopy v0.99pb5
#
DISCID=730eb20b
DTITLE=Clay Kirkland - Invitation to the Blues
DYEAR=2002
DGENRE=Blues
TTITLE0=New Train Boogie
TTITLE1=Dust My Blues
TTITLE2=Invitation to the Blues
TTITLE3=Washed My Hands In Muddy Water
TTITLE4=Brahms In Blue
TTITLE5=Blue Suede Shoes
TTITLE6=Orange Blossom Special
TTITLE7=Wintertime
TTITLE8=Let It Go
TTITLE9=I Am
TTITLE10=Impressionism
EXTD=
EXTT0=
EXTT1=
EXTT2=
EXTT3=
EXTT4=
EXTT5=
EXTT6=
EXTT7=
EXTT8=
EXTT9=
EXTT10=
PLAYORDER=
